<?xml version="1.0" standalone="no"?>
<!DOCTYPE svg PUBLIC "-//W3C//DTD SVG 20010904//EN"
 "http://www.w3.org/TR/2001/REC-SVG-20010904/DTD/svg10.dtd">
<svg version="1.0" xmlns="http://www.w3.org/2000/svg"
 width="1667.000000pt" height="1667.000000pt" viewBox="0 0 1667.000000 1667.000000"
 preserveAspectRatio="xMidYMid meet">
<metadata>
Created by potrace 1.13, written by Peter Selinger 2001-2015
</metadata>
<g transform="translate(0.000000,1667.000000) scale(0.100000,-0.100000)"
fill="#000000" stroke="none">
<path d="M10962 15148 c-14 -19 -122 -380 -122 -411 0 -17 5 -27 14 -27 10 0
24 30 41 88 15 48 44 145 66 215 21 71 39 133 39 138 0 13 -26 11 -38 -3z"/>
<path d="M11046 15089 c-46 -134 -111 -369 -102 -369 29 0 46 35 92 188 45
151 47 163 31 179 -14 14 -17 14 -21 2z"/>
<path d="M2662 12273 c5 -24 398 -237 412 -223 17 17 -20 43 -206 144 -179 98
-212 110 -206 79z"/>
<path d="M2650 12177 c0 -26 27 -45 168 -121 97 -52 150 -75 163 -71 10 4 19
10 19 14 0 7 -331 191 -344 191 -3 0 -6 -6 -6 -13z"/>
<path d="M8431 11920 c-107 -32 -201 -66 -209 -74 -39 -39 11 -32 223 32 169
52 221 71 223 85 5 26 -23 21 -237 -43z"/>
<path d="M8457 11821 c-179 -54 -187 -58 -169 -74 18 -16 27 -14 173 29 85 25
161 50 170 55 16 8 34 50 21 48 -4 0 -92 -26 -195 -58z"/>
<path d="M4446 8560 c-62 -19 -91 -80 -66 -141 26 -61 5 -59 730 -59 595 0
660 2 660 16 0 9 3 14 8 12 4 -2 98 -49 209 -105 129 -65 204 -99 209 -92 3 6
-2 19 -12 29 -29 27 -368 200 -393 200 -54 0 -143 71 -157 126 l-6 24 -577 -1
c-317 0 -589 -5 -605 -9z"/>
<path d="M6360 8566 c0 -2 22 -18 50 -36 62 -40 96 -79 111 -130 l12 -40 2818
0 2819 0 30 28 c62 55 42 149 -37 171 -26 8 -928 11 -2920 11 -1586 0 -2883
-2 -2883 -4z"/>
<path d="M5770 8306 c0 -24 23 -40 169 -115 135 -69 170 -80 178 -55 3 9 -321
184 -341 184 -3 0 -6 -6 -6 -14z"/>
<path d="M8335 5841 c-26 -4 -36 -9 -27 -14 7 -5 22 -5 34 -1 18 5 20 3 14
-12 -5 -11 -17 -43 -28 -71 -13 -33 -27 -53 -36 -53 -12 0 -13 -3 -5 -11 9 -9
7 -21 -8 -50 -15 -30 -25 -39 -45 -39 -14 0 -23 -4 -19 -10 8 -13 135 -13 135
-1 0 5 -13 12 -30 16 l-29 6 16 35 c16 32 20 34 65 34 43 0 50 -3 58 -26 16
-41 12 -54 -15 -54 -14 0 -25 -4 -25 -9 0 -14 129 -26 142 -13 12 12 3 18 -37
24 -15 2 -26 26 -52 108 -18 58 -33 112 -33 121 0 13 -26 34 -33 28 -1 -1 -20
-5 -42 -8z"/>
<path d="M8080 5808 c0 -9 -15 -13 -42 -13 -69 0 -128 -58 -128 -124 0 -76 50
-131 120 -131 41 0 66 14 84 48 l14 27 11 -27 c10 -27 21 -34 33 -22 3 3 -3
28 -13 55 -11 28 -17 54 -14 60 8 12 -13 11 -74 -3 -60 -14 -69 -33 -11 -23
l40 7 0 -35 c0 -61 -47 -84 -109 -53 -33 18 -51 54 -51 106 0 30 7 45 31 69
37 38 72 40 103 6 27 -29 49 -33 43 -7 -3 9 -8 29 -11 45 -6 27 -26 38 -26 15z"/>
<path d="M8678 5763 l23 -19 -47 -102 c-44 -95 -49 -101 -72 -95 -40 10 -16
-16 35 -38 54 -23 70 -24 53 -4 -7 8 -19 15 -26 15 -18 0 -19 -1 16 69 17 33
35 72 40 87 6 15 13 24 17 20 4 -3 18 -61 32 -128 14 -67 31 -123 37 -125 6
-2 34 44 64 102 48 95 55 104 77 99 43 -11 23 13 -29 35 -52 22 -77 20 -45 -3
9 -7 17 -18 17 -24 0 -10 -65 -141 -75 -150 -2 -2 -16 51 -31 118 -16 67 -33
128 -39 135 -5 8 -23 17 -40 20 l-30 7 23 -19z"/>
<path d="M7639 5652 c-24 -16 -53 -39 -64 -51 l-19 -22 24 5 c23 5 30 -2 78
-86 49 -86 51 -92 36 -110 -10 -10 -13 -18 -9 -18 15 0 95 51 95 60 0 13 -17
13 -25 0 -11 -18 -21 -11 -44 31 -22 38 -22 41 -5 53 15 11 27 10 76 -6 57
-19 71 -32 46 -41 -7 -2 -10 -7 -7 -11 7 -8 88 44 89 57 0 10 -18 9 -24 -2 -5
-8 -137 30 -138 40 0 2 8 21 18 41 16 35 16 38 0 62 -23 35 -69 34 -127 -2z"/>
<path d="M7433 5435 c-32 -19 -45 -36 -54 -64 -23 -77 42 -191 108 -191 40 0
99 39 117 76 28 60 21 105 -21 146 -33 32 -79 58 -101 58 -4 0 -26 -12 -49
-25z m86 -20 c39 -20 81 -72 81 -100 0 -60 -47 -105 -109 -105 -44 0 -83 55
-89 125 -4 52 -3 54 29 74 40 25 51 26 88 6z"/>
<path d="M9075 5418 c-38 -14 -74 -46 -87 -78 -20 -53 43 -150 98 -150 35 0
29 16 -8 26 -44 13 -77 70 -63 110 25 69 156 103 191 49 13 -20 14 -29 3 -59
-7 -20 -10 -39 -6 -42 9 -9 87 43 87 57 0 7 -10 9 -24 5 -21 -5 -25 -2 -31 23
-3 16 -15 37 -25 46 -24 21 -95 28 -135 13z"/>
<path d="M7676 4989 c-34 -27 -57 -73 -91 -181 l-27 -88 -84 0 c-61 0 -84 3
-84 13 0 6 12 50 26 97 15 47 27 99 28 115 l1 30 -75 -1 c-86 -1 -175 -24
-213 -55 -20 -15 -27 -30 -27 -55 0 -19 2 -34 5 -34 3 0 23 11 44 25 21 15 60
28 88 32 l51 6 -32 -93 c-29 -83 -36 -94 -66 -107 -77 -32 -95 -74 -29 -66 42
6 42 6 36 -23 -22 -97 -30 -194 -19 -219 11 -23 16 -25 49 -19 54 10 60 18 68
87 8 71 33 178 45 190 4 5 45 5 90 1 l82 -7 -6 -31 c-4 -17 -9 -65 -13 -106
-7 -92 9 -119 71 -123 l40 -2 12 110 c7 61 27 191 43 288 42 240 40 258 -13
216z"/>
<path d="M8318 4783 c-30 -34 -59 -105 -65 -156 -3 -29 -11 -61 -18 -73 -13
-21 -71 -51 -80 -42 -3 3 0 27 6 55 20 87 -27 143 -104 122 -77 -21 -102 -110
-51 -184 29 -44 22 -55 -36 -55 -70 0 -109 61 -88 138 23 83 89 131 181 132
55 0 60 16 11 39 -70 35 -196 9 -250 -51 -87 -95 -87 -257 0 -313 67 -44 162
-40 235 10 33 23 62 34 97 37 27 3 56 8 65 12 13 6 17 -1 22 -35 3 -23 11 -46
19 -50 31 -20 105 26 100 62 -11 89 -6 136 18 183 28 55 58 79 92 74 26 -3 26
-7 12 -165 -8 -98 -1 -130 30 -144 31 -14 96 4 136 37 l30 26 28 -30 c59 -63
202 -64 289 -3 42 30 43 30 54 10 13 -26 67 -49 112 -49 20 0 50 10 71 25 46
31 48 31 40 -2 -9 -40 -12 -42 -107 -64 -102 -24 -137 -47 -137 -91 0 -40 52
-93 102 -102 84 -15 161 31 188 114 11 33 26 50 69 80 95 65 151 139 151 200
l0 35 -74 -78 c-40 -42 -78 -77 -83 -77 -6 0 3 46 18 103 41 142 47 206 23
245 -42 73 -70 47 -109 -105 -36 -136 -57 -181 -92 -189 -32 -8 -57 6 -61 34
-2 12 6 58 17 102 36 136 23 188 -43 174 -17 -3 -35 -9 -39 -13 -4 -4 -13 -50
-19 -102 -10 -84 -14 -98 -42 -127 -65 -70 -173 -95 -217 -51 -36 36 -22 59
56 90 81 33 125 75 125 120 0 44 -15 66 -55 79 -42 14 -86 6 -141 -25 -54 -31
-114 -125 -114 -177 0 -24 -70 -98 -94 -98 -20 0 -20 14 -1 87 17 65 20 156 5
183 -22 41 -116 52 -170 19 -25 -15 -35 -18 -38 -9 -6 16 -40 50 -50 50 -5 0
-16 -8 -24 -17z"/>
<path d="M7827 3658 c10 -12 9 -23 -7 -57 -12 -22 -25 -52 -30 -66 -5 -14 -17
-25 -27 -25 -11 -1 -5 -8 17 -20 33 -17 59 -18 31 0 -12 7 -12 13 -1 39 7 17
16 31 20 31 26 0 55 -100 29 -100 -8 -1 1 -7 20 -15 43 -19 47 -19 29 3 -8 9
-20 36 -26 60 -10 42 -10 42 17 42 31 0 51 16 51 40 0 21 -38 56 -70 65 -14 3
-34 9 -45 12 -17 5 -18 3 -8 -9z"/>
<path d="M8623 3610 c-43 -21 -58 -36 -25 -26 15 5 23 -6 45 -69 24 -69 25
-75 9 -84 -24 -14 -5 -13 35 1 35 13 46 30 14 21 -13 -3 -20 2 -24 19 -15 55
-1 61 58 27 26 -16 33 -24 24 -30 -25 -15 -4 -16 31 -2 l35 15 -38 13 c-20 7
-45 19 -55 26 -9 7 -19 14 -21 16 -2 1 4 10 13 19 10 9 16 28 14 43 -3 22 -8
26 -38 28 -19 2 -54 -6 -77 -17z"/>
<path d="M8008 3563 c25 -5 26 -13 10 -99 -10 -59 -14 -64 -37 -64 -40 0 -11
-17 39 -23 40 -5 43 -4 26 8 -15 12 -17 22 -11 61 3 26 10 56 14 68 7 18 11
15 29 -27 11 -26 23 -47 26 -47 3 0 22 17 42 38 33 34 35 35 30 12 -3 -14 -8
-45 -12 -68 -5 -32 -13 -46 -28 -52 -18 -6 -16 -9 19 -19 49 -13 55 -14 55 -1
0 6 -9 10 -21 10 -13 0 -19 5 -17 13 3 6 11 42 18 80 12 57 17 67 34 67 17 0
18 2 6 10 -29 19 -57 10 -84 -25 -15 -19 -30 -35 -35 -35 -4 0 -17 23 -28 50
-20 48 -23 50 -60 49 -23 -1 -29 -3 -15 -6z"/>
<path d="M8320 773 c-95 -33 -140 -81 -143 -152 -2 -60 8 -65 126 -64 102 0
186 20 236 55 19 13 19 14 0 53 -25 51 -57 84 -96 101 -32 14 -94 17 -123 7z"/>
<path d="M6017 754 c-4 -4 -7 -29 -7 -56 0 -49 0 -49 -22 -34 -51 36 -122 4
-134 -60 -11 -57 11 -112 52 -131 31 -15 37 -15 68 0 29 13 36 14 46 2 6 -8
18 -11 26 -8 22 8 16 286 -6 291 -9 1 -19 0 -23 -4z"/>
<path d="M7457 754 c-4 -4 -7 -29 -7 -56 0 -49 0 -49 -22 -34 -50 36 -119 10
-134 -49 -9 -38 2 -104 21 -125 25 -28 71 -35 101 -15 22 14 26 14 40 0 13
-12 19 -13 30 -4 22 18 16 282 -6 287 -9 1 -19 0 -23 -4z"/>
<path d="M7627 753 c-4 -3 -7 -68 -7 -144 0 -109 3 -138 14 -142 8 -3 20 0 26
8 9 11 15 11 38 -1 34 -18 46 -18 82 1 58 30 65 144 12 185 -27 21 -63 23
-104 5 -15 -6 -18 -2 -18 28 0 57 -20 84 -43 60z"/>
<path d="M8712 748 c-6 -7 -13 -25 -17 -40 -4 -15 -13 -29 -21 -32 -19 -7 -18
-36 1 -36 12 0 15 -15 15 -74 0 -55 4 -79 16 -91 30 -29 44 -1 44 86 0 72 2
79 20 79 12 0 20 7 20 16 0 9 -9 18 -20 21 -31 8 -25 41 8 45 16 2 27 9 27 18
0 20 -77 26 -93 8z"/>
<path d="M9740 741 c-5 -11 -10 -71 -10 -135 0 -92 3 -118 16 -131 21 -21 44
-3 44 35 0 15 6 33 14 40 12 9 20 4 42 -32 33 -53 45 -61 63 -43 13 12 10 21
-17 65 -38 60 -38 62 -12 85 11 10 20 26 20 37 0 31 -35 21 -74 -22 l-36 -40
0 64 c0 35 -3 71 -6 80 -8 22 -31 20 -44 -3z"/>
<path d="M6119 651 c-55 -56 -33 -160 40 -182 58 -17 131 13 131 55 0 11 -35
5 -54 -9 -28 -22 -63 -18 -80 7 -9 12 -16 26 -16 30 0 4 33 8 72 10 61 3 73 6
76 21 11 56 -33 97 -103 97 -27 0 -44 -8 -66 -29z"/>
<path d="M6336 659 c-14 -11 -26 -29 -26 -39 0 -25 41 -56 84 -64 33 -6 52
-28 40 -47 -10 -17 -63 -10 -76 11 -14 22 -33 26 -43 10 -11 -18 23 -58 55
-65 37 -8 85 2 105 22 8 8 15 28 15 43 0 32 -25 54 -75 66 -43 10 -58 23 -44
40 16 19 32 17 63 -7 27 -21 46 -18 46 6 0 43 -99 60 -144 24z"/>
<path d="M6636 658 c-35 -31 -43 -91 -19 -138 22 -43 61 -59 105 -42 39 14 45
10 32 -26 -12 -35 -59 -42 -93 -13 -23 20 -51 18 -51 -4 0 -58 160 -71 190
-15 6 10 10 73 10 139 0 112 -1 121 -19 121 -10 0 -22 -7 -25 -16 -5 -14 -8
-14 -28 0 -32 23 -73 20 -102 -6z"/>
<path d="M6857 673 c-13 -13 -8 -201 6 -206 29 -10 37 6 37 73 0 52 4 71 18
83 46 42 72 10 72 -86 0 -64 8 -80 38 -70 8 3 12 30 12 89 0 71 -3 87 -20 104
-24 24 -67 26 -97 5 -19 -13 -22 -13 -27 0 -6 15 -28 20 -39 8z"/>
<path d="M7099 651 c-55 -56 -33 -160 40 -182 58 -17 131 13 131 55 0 11 -35
5 -54 -9 -28 -22 -63 -18 -80 7 -9 12 -16 26 -16 30 0 4 33 8 72 10 81 3 91
13 68 67 -24 58 -113 70 -161 22z"/>
<path d="M7836 671 c-4 -5 10 -53 30 -106 31 -81 35 -100 26 -120 -8 -17 -20
-25 -37 -25 -34 0 -33 -28 2 -36 53 -14 74 11 126 146 26 69 45 131 42 138
-12 32 -39 4 -65 -68 -23 -60 -30 -71 -36 -55 -4 11 -17 45 -29 75 -20 52 -45
74 -59 51z"/>
<path d="M8806 664 c-3 -9 -6 -51 -6 -94 0 -59 4 -83 16 -95 27 -27 44 -1 44
69 0 74 8 89 51 90 23 1 35 6 37 18 4 23 -44 35 -72 18 -14 -9 -21 -10 -24 -1
-6 17 -39 13 -46 -5z"/>
<path d="M8979 651 c-24 -25 -29 -38 -29 -78 0 -60 19 -89 69 -104 58 -17 131
13 131 55 0 11 -35 5 -54 -9 -27 -20 -59 -19 -79 3 -30 33 -20 41 56 44 70 3
72 4 75 31 2 20 -5 35 -27 57 -41 42 -100 42 -142 1z"/>
<path d="M9223 670 c-56 -23 -68 -129 -20 -177 43 -44 131 -39 161 9 18 30 -6
42 -36 18 -44 -34 -98 -22 -98 22 0 15 9 18 64 18 79 0 94 13 72 63 -8 20 -23
40 -34 46 -24 13 -78 13 -109 1z"/>
<path d="M9407 673 c-12 -11 -8 -281 3 -288 21 -13 40 17 40 61 l0 43 28 -15
c34 -18 46 -18 82 1 35 18 56 76 46 129 -12 64 -83 96 -134 60 -20 -14 -23
-14 -28 0 -6 16 -26 21 -37 9z"/>
<path d="M10079 651 c-31 -32 -39 -84 -19 -136 13 -34 71 -59 117 -50 34 6 73
39 73 62 0 26 -30 26 -55 -1 -29 -31 -48 -33 -75 -6 -24 24 -26 67 -4 98 19
28 51 28 80 1 23 -21 54 -20 54 1 0 6 -11 22 -25 35 -37 37 -106 35 -146 -4z"/>
<path d="M10323 670 c-54 -22 -70 -119 -28 -168 31 -37 73 -48 120 -32 47 15
65 44 65 103 0 40 -5 53 -29 78 -31 31 -81 38 -128 19z"/>
<path d="M10517 673 c-13 -13 -8 -201 6 -206 28 -10 37 6 37 63 0 79 13 112
43 108 20 -3 22 -10 27 -81 5 -78 17 -101 47 -90 9 4 13 26 13 73 0 72 16 104
49 98 13 -3 17 -18 19 -78 3 -84 14 -105 44 -89 18 10 20 19 16 96 -2 70 -6
87 -22 99 -26 18 -66 18 -93 -1 -18 -13 -22 -13 -33 0 -15 18 -63 19 -91 3
-17 -10 -23 -10 -26 0 -5 13 -25 16 -36 5z"/>
<path d="M8535 590 c-3 -5 -37 -19 -75 -31 -56 -17 -90 -20 -174 -17 l-105 3
17 -29 c28 -48 66 -69 131 -74 109 -8 212 49 227 126 6 31 -7 45 -21 22z"/>
</g>
</svg>
